<svg width="1170" height="171" viewBox="0 0 1170 171" fill="none" xmlns="http://www.w3.org/2000/svg">
<rect x="0.5" y="12.5" width="169" height="144" rx="3.5" stroke="black" stroke-opacity="0.3"/>
<path d="M63.688 119.112C63.688 120.04 63.368 120.813 62.728 121.432C62.0987 122.04 61.1333 122.344 59.832 122.344H57.688V127H56.232V115.848H59.832C61.0907 115.848 62.0453 116.152 62.696 116.76C63.3573 117.368 63.688 118.152 63.688 119.112ZM59.832 121.144C60.6427 121.144 61.24 120.968 61.624 120.616C62.008 120.264 62.2 119.763 62.2 119.112C62.2 117.736 61.4107 117.048 59.832 117.048H57.688V121.144H59.832ZM69.8496 118.072C70.511 118.072 71.1083 118.216 71.6416 118.504C72.175 118.781 72.591 119.203 72.8896 119.768C73.199 120.333 73.3536 121.021 73.3536 121.832V127H71.9136V122.04C71.9136 121.165 71.695 120.499 71.2576 120.04C70.8203 119.571 70.223 119.336 69.4656 119.336C68.6976 119.336 68.0843 119.576 67.6256 120.056C67.1776 120.536 66.9536 121.235 66.9536 122.152V127H65.4976V115.16H66.9536V119.48C67.2416 119.032 67.6363 118.685 68.1376 118.44C68.6496 118.195 69.2203 118.072 69.8496 118.072ZM79.556 127.144C78.7347 127.144 77.988 126.957 77.316 126.584C76.6547 126.211 76.132 125.683 75.748 125C75.3747 124.307 75.188 123.507 75.188 122.6C75.188 121.704 75.38 120.915 75.764 120.232C76.1587 119.539 76.692 119.011 77.364 118.648C78.036 118.275 78.788 118.088 79.62 118.088C80.452 118.088 81.204 118.275 81.876 118.648C82.548 119.011 83.076 119.533 83.46 120.216C83.8547 120.899 84.052 121.693 84.052 122.6C84.052 123.507 83.8493 124.307 83.444 125C83.0493 125.683 82.5107 126.211 81.828 126.584C81.1453 126.957 80.388 127.144 79.556 127.144ZM79.556 125.864C80.0787 125.864 80.5693 125.741 81.028 125.496C81.4867 125.251 81.8547 124.883 82.132 124.392C82.42 123.901 82.564 123.304 82.564 122.6C82.564 121.896 82.4253 121.299 82.148 120.808C81.8707 120.317 81.508 119.955 81.06 119.72C80.612 119.475 80.1267 119.352 79.604 119.352C79.0707 119.352 78.58 119.475 78.132 119.72C77.6947 119.955 77.3427 120.317 77.076 120.808C76.8093 121.299 76.676 121.896 76.676 122.6C76.676 123.315 76.804 123.917 77.06 124.408C77.3267 124.899 77.6787 125.267 78.116 125.512C78.5533 125.747 79.0333 125.864 79.556 125.864ZM90.2384 118.072C91.305 118.072 92.169 118.397 92.8304 119.048C93.4917 119.688 93.8224 120.616 93.8224 121.832V127H92.3824V122.04C92.3824 121.165 92.1637 120.499 91.7264 120.04C91.289 119.571 90.6917 119.336 89.9344 119.336C89.1664 119.336 88.553 119.576 88.0944 120.056C87.6464 120.536 87.4224 121.235 87.4224 122.152V127H85.9664V118.232H87.4224V119.48C87.7104 119.032 88.0997 118.685 88.5904 118.44C89.0917 118.195 89.641 118.072 90.2384 118.072ZM104.201 122.28C104.201 122.557 104.185 122.851 104.153 123.16H97.1448C97.1981 124.024 97.4914 124.701 98.0248 125.192C98.5688 125.672 99.2248 125.912 99.9928 125.912C100.622 125.912 101.145 125.768 101.561 125.48C101.987 125.181 102.286 124.787 102.457 124.296H104.025C103.79 125.139 103.321 125.827 102.617 126.36C101.913 126.883 101.038 127.144 99.9928 127.144C99.1608 127.144 98.4141 126.957 97.7528 126.584C97.1021 126.211 96.5901 125.683 96.2168 125C95.8434 124.307 95.6568 123.507 95.6568 122.6C95.6568 121.693 95.8381 120.899 96.2008 120.216C96.5634 119.533 97.0701 119.011 97.7208 118.648C98.3821 118.275 99.1394 118.088 99.9928 118.088C100.825 118.088 101.561 118.269 102.201 118.632C102.841 118.995 103.331 119.496 103.673 120.136C104.025 120.765 104.201 121.48 104.201 122.28ZM102.697 121.976C102.697 121.421 102.574 120.947 102.329 120.552C102.083 120.147 101.747 119.843 101.321 119.64C100.905 119.427 100.441 119.32 99.9288 119.32C99.1928 119.32 98.5634 119.555 98.0408 120.024C97.5288 120.493 97.2354 121.144 97.1608 121.976H102.697ZM109.227 127.144C108.555 127.144 107.952 127.032 107.419 126.808C106.885 126.573 106.464 126.253 106.155 125.848C105.845 125.432 105.675 124.957 105.643 124.424H107.147C107.189 124.861 107.392 125.219 107.755 125.496C108.128 125.773 108.613 125.912 109.211 125.912C109.765 125.912 110.203 125.789 110.523 125.544C110.843 125.299 111.003 124.989 111.003 124.616C111.003 124.232 110.832 123.949 110.491 123.768C110.149 123.576 109.621 123.389 108.907 123.208C108.256 123.037 107.723 122.867 107.307 122.696C106.901 122.515 106.549 122.253 106.251 121.912C105.963 121.56 105.819 121.101 105.819 120.536C105.819 120.088 105.952 119.677 106.219 119.304C106.485 118.931 106.864 118.637 107.355 118.424C107.845 118.2 108.405 118.088 109.035 118.088C110.005 118.088 110.789 118.333 111.387 118.824C111.984 119.315 112.304 119.987 112.347 120.84H110.891C110.859 120.381 110.672 120.013 110.331 119.736C110 119.459 109.552 119.32 108.987 119.32C108.464 119.32 108.048 119.432 107.739 119.656C107.429 119.88 107.275 120.173 107.275 120.536C107.275 120.824 107.365 121.064 107.547 121.256C107.739 121.437 107.973 121.587 108.251 121.704C108.539 121.811 108.933 121.933 109.435 122.072C110.064 122.243 110.576 122.413 110.971 122.584C111.365 122.744 111.701 122.989 111.979 123.32C112.267 123.651 112.416 124.083 112.427 124.616C112.427 125.096 112.293 125.528 112.027 125.912C111.76 126.296 111.381 126.6 110.891 126.824C110.411 127.037 109.856 127.144 109.227 127.144Z" fill="black"/>
<g clip-path="url(#clip0_79_606)">
<path d="M95.9375 43.125H74.0625C72.5523 43.125 71.3281 44.3492 71.3281 45.8594V84.1406C71.3281 85.6508 72.5523 86.875 74.0625 86.875H95.9375C97.4477 86.875 98.6719 85.6508 98.6719 84.1406V45.8594C98.6719 44.3492 97.4477 43.125 95.9375 43.125Z" stroke="black" stroke-width="2" stroke-linecap="round" stroke-linejoin="round"/>
<path d="M82.6667 44H88.1354" stroke="black" stroke-width="3" stroke-linecap="round" stroke-linejoin="round"/>
<path d="M85 81.0052V81.0305" stroke="black" stroke-width="2.5" stroke-linecap="round" stroke-linejoin="round"/>
<line x1="72.1667" y1="76.8334" x2="97.8333" y2="76.8334" stroke="black" stroke-width="2"/>
</g>
<rect x="200.5" y="12.5" width="169" height="144" rx="3.5" stroke="black" stroke-opacity="0.3"/>
<path d="M240.688 121.416C240.688 120.328 240.933 119.352 241.424 118.488C241.915 117.613 242.581 116.931 243.424 116.44C244.277 115.949 245.221 115.704 246.256 115.704C247.472 115.704 248.533 115.997 249.44 116.584C250.347 117.171 251.008 118.003 251.424 119.08H249.68C249.371 118.408 248.923 117.891 248.336 117.528C247.76 117.165 247.067 116.984 246.256 116.984C245.477 116.984 244.779 117.165 244.16 117.528C243.541 117.891 243.056 118.408 242.704 119.08C242.352 119.741 242.176 120.52 242.176 121.416C242.176 122.301 242.352 123.08 242.704 123.752C243.056 124.413 243.541 124.925 244.16 125.288C244.779 125.651 245.477 125.832 246.256 125.832C247.067 125.832 247.76 125.656 248.336 125.304C248.923 124.941 249.371 124.424 249.68 123.752H251.424C251.008 124.819 250.347 125.645 249.44 126.232C248.533 126.808 247.472 127.096 246.256 127.096C245.221 127.096 244.277 126.856 243.424 126.376C242.581 125.885 241.915 125.208 241.424 124.344C240.933 123.48 240.688 122.504 240.688 121.416ZM257.415 127.144C256.594 127.144 255.847 126.957 255.175 126.584C254.514 126.211 253.991 125.683 253.607 125C253.234 124.307 253.047 123.507 253.047 122.6C253.047 121.704 253.239 120.915 253.623 120.232C254.018 119.539 254.551 119.011 255.223 118.648C255.895 118.275 256.647 118.088 257.479 118.088C258.311 118.088 259.063 118.275 259.735 118.648C260.407 119.011 260.935 119.533 261.319 120.216C261.714 120.899 261.911 121.693 261.911 122.6C261.911 123.507 261.709 124.307 261.303 125C260.909 125.683 260.37 126.211 259.687 126.584C259.005 126.957 258.247 127.144 257.415 127.144ZM257.415 125.864C257.938 125.864 258.429 125.741 258.887 125.496C259.346 125.251 259.714 124.883 259.991 124.392C260.279 123.901 260.423 123.304 260.423 122.6C260.423 121.896 260.285 121.299 260.007 120.808C259.73 120.317 259.367 119.955 258.919 119.72C258.471 119.475 257.986 119.352 257.463 119.352C256.93 119.352 256.439 119.475 255.991 119.72C255.554 119.955 255.202 120.317 254.935 120.808C254.669 121.299 254.535 121.896 254.535 122.6C254.535 123.315 254.663 123.917 254.919 124.408C255.186 124.899 255.538 125.267 255.975 125.512C256.413 125.747 256.893 125.864 257.415 125.864ZM274.37 118.072C275.052 118.072 275.66 118.216 276.194 118.504C276.727 118.781 277.148 119.203 277.458 119.768C277.767 120.333 277.922 121.021 277.922 121.832V127H276.482V122.04C276.482 121.165 276.263 120.499 275.826 120.04C275.399 119.571 274.818 119.336 274.082 119.336C273.324 119.336 272.722 119.581 272.274 120.072C271.826 120.552 271.602 121.251 271.602 122.168V127H270.162V122.04C270.162 121.165 269.943 120.499 269.506 120.04C269.079 119.571 268.498 119.336 267.762 119.336C267.004 119.336 266.402 119.581 265.954 120.072C265.506 120.552 265.282 121.251 265.282 122.168V127H263.826V118.232H265.282V119.496C265.57 119.037 265.954 118.685 266.434 118.44C266.924 118.195 267.463 118.072 268.05 118.072C268.786 118.072 269.436 118.237 270.002 118.568C270.567 118.899 270.988 119.384 271.266 120.024C271.511 119.405 271.916 118.925 272.482 118.584C273.047 118.243 273.676 118.072 274.37 118.072ZM281.766 119.848C282.054 119.347 282.481 118.931 283.046 118.6C283.622 118.259 284.289 118.088 285.046 118.088C285.825 118.088 286.529 118.275 287.158 118.648C287.798 119.021 288.299 119.549 288.662 120.232C289.025 120.904 289.206 121.688 289.206 122.584C289.206 123.469 289.025 124.259 288.662 124.952C288.299 125.645 287.798 126.184 287.158 126.568C286.529 126.952 285.825 127.144 285.046 127.144C284.299 127.144 283.638 126.979 283.062 126.648C282.497 126.307 282.065 125.885 281.766 125.384V131.16H280.31V118.232H281.766V119.848ZM287.718 122.584C287.718 121.923 287.585 121.347 287.318 120.856C287.051 120.365 286.689 119.992 286.23 119.736C285.782 119.48 285.286 119.352 284.742 119.352C284.209 119.352 283.713 119.485 283.254 119.752C282.806 120.008 282.443 120.387 282.166 120.888C281.899 121.379 281.766 121.949 281.766 122.6C281.766 123.261 281.899 123.843 282.166 124.344C282.443 124.835 282.806 125.213 283.254 125.48C283.713 125.736 284.209 125.864 284.742 125.864C285.286 125.864 285.782 125.736 286.23 125.48C286.689 125.213 287.051 124.835 287.318 124.344C287.585 123.843 287.718 123.256 287.718 122.584ZM298.899 118.232V127H297.443V125.704C297.165 126.152 296.776 126.504 296.275 126.76C295.784 127.005 295.24 127.128 294.643 127.128C293.96 127.128 293.347 126.989 292.803 126.712C292.259 126.424 291.827 125.997 291.507 125.432C291.197 124.867 291.043 124.179 291.043 123.368V118.232H292.483V123.176C292.483 124.04 292.701 124.707 293.139 125.176C293.576 125.635 294.173 125.864 294.931 125.864C295.709 125.864 296.323 125.624 296.771 125.144C297.219 124.664 297.443 123.965 297.443 123.048V118.232H298.899ZM303.133 119.432V124.6C303.133 125.027 303.224 125.331 303.405 125.512C303.586 125.683 303.901 125.768 304.349 125.768H305.421V127H304.109C303.298 127 302.69 126.813 302.285 126.44C301.88 126.067 301.677 125.453 301.677 124.6V119.432H300.541V118.232H301.677V116.024H303.133V118.232H305.421V119.432H303.133ZM315.185 122.28C315.185 122.557 315.169 122.851 315.137 123.16H308.129C308.182 124.024 308.476 124.701 309.009 125.192C309.553 125.672 310.209 125.912 310.977 125.912C311.606 125.912 312.129 125.768 312.545 125.48C312.972 125.181 313.27 124.787 313.441 124.296H315.009C314.774 125.139 314.305 125.827 313.601 126.36C312.897 126.883 312.022 127.144 310.977 127.144C310.145 127.144 309.398 126.957 308.737 126.584C308.086 126.211 307.574 125.683 307.201 125C306.828 124.307 306.641 123.507 306.641 122.6C306.641 121.693 306.822 120.899 307.185 120.216C307.548 119.533 308.054 119.011 308.705 118.648C309.366 118.275 310.124 118.088 310.977 118.088C311.809 118.088 312.545 118.269 313.185 118.632C313.825 118.995 314.316 119.496 314.657 120.136C315.009 120.765 315.185 121.48 315.185 122.28ZM313.681 121.976C313.681 121.421 313.558 120.947 313.313 120.552C313.068 120.147 312.732 119.843 312.305 119.64C311.889 119.427 311.425 119.32 310.913 119.32C310.177 119.32 309.548 119.555 309.025 120.024C308.513 120.493 308.22 121.144 308.145 121.976H313.681ZM318.563 119.656C318.819 119.155 319.182 118.765 319.651 118.488C320.131 118.211 320.712 118.072 321.395 118.072V119.576H321.011C319.379 119.576 318.563 120.461 318.563 122.232V127H317.107V118.232H318.563V119.656ZM326.18 127.144C325.508 127.144 324.905 127.032 324.372 126.808C323.838 126.573 323.417 126.253 323.108 125.848C322.798 125.432 322.628 124.957 322.596 124.424H324.1C324.142 124.861 324.345 125.219 324.708 125.496C325.081 125.773 325.566 125.912 326.164 125.912C326.718 125.912 327.156 125.789 327.476 125.544C327.796 125.299 327.956 124.989 327.956 124.616C327.956 124.232 327.785 123.949 327.444 123.768C327.102 123.576 326.574 123.389 325.86 123.208C325.209 123.037 324.676 122.867 324.26 122.696C323.854 122.515 323.502 122.253 323.204 121.912C322.916 121.56 322.772 121.101 322.772 120.536C322.772 120.088 322.905 119.677 323.172 119.304C323.438 118.931 323.817 118.637 324.308 118.424C324.798 118.2 325.358 118.088 325.988 118.088C326.958 118.088 327.742 118.333 328.34 118.824C328.937 119.315 329.257 119.987 329.3 120.84H327.844C327.812 120.381 327.625 120.013 327.284 119.736C326.953 119.459 326.505 119.32 325.94 119.32C325.417 119.32 325.001 119.432 324.692 119.656C324.382 119.88 324.228 120.173 324.228 120.536C324.228 120.824 324.318 121.064 324.5 121.256C324.692 121.437 324.926 121.587 325.204 121.704C325.492 121.811 325.886 121.933 326.388 122.072C327.017 122.243 327.529 122.413 327.924 122.584C328.318 122.744 328.654 122.989 328.932 123.32C329.22 123.651 329.369 124.083 329.38 124.616C329.38 125.096 329.246 125.528 328.98 125.912C328.713 126.296 328.334 126.6 327.844 126.824C327.364 127.037 326.809 127.144 326.18 127.144Z" fill="black"/>
<g clip-path="url(#clip1_79_606)">
<path d="M304.667 46.3334H267.333C266.045 46.3334 265 47.378 265 48.6667V72C265 73.2887 266.045 74.3334 267.333 74.3334H304.667C305.955 74.3334 307 73.2887 307 72V48.6667C307 47.378 305.955 46.3334 304.667 46.3334Z" stroke="black" stroke-width="2" stroke-linecap="round" stroke-linejoin="round"/>
<path d="M274.333 83.6666H297.667" stroke="black" stroke-width="2" stroke-linecap="round" stroke-linejoin="round"/>
<path d="M279 74.3334V83.6667" stroke="black" stroke-width="2" stroke-linecap="round" stroke-linejoin="round"/>
<path d="M293 74.3334V83.6667" stroke="black" stroke-width="2" stroke-linecap="round" stroke-linejoin="round"/>
<path d="M266 69H306" stroke="black" stroke-width="2" stroke-linecap="round"/>
</g>
<rect x="400.5" y="12.5" width="169" height="144" rx="3.5" stroke="black" stroke-opacity="0.3"/>
<path d="M438.768 127.112C438.032 127.112 437.371 126.984 436.784 126.728C436.208 126.461 435.755 126.099 435.424 125.64C435.093 125.171 434.923 124.632 434.912 124.024H436.464C436.517 124.547 436.731 124.989 437.104 125.352C437.488 125.704 438.043 125.88 438.768 125.88C439.461 125.88 440.005 125.709 440.4 125.368C440.805 125.016 441.008 124.568 441.008 124.024C441.008 123.597 440.891 123.251 440.656 122.984C440.421 122.717 440.128 122.515 439.776 122.376C439.424 122.237 438.949 122.088 438.352 121.928C437.616 121.736 437.024 121.544 436.576 121.352C436.139 121.16 435.76 120.861 435.44 120.456C435.131 120.04 434.976 119.485 434.976 118.792C434.976 118.184 435.131 117.645 435.44 117.176C435.749 116.707 436.181 116.344 436.736 116.088C437.301 115.832 437.947 115.704 438.672 115.704C439.717 115.704 440.571 115.965 441.232 116.488C441.904 117.011 442.283 117.704 442.368 118.568H440.768C440.715 118.141 440.491 117.768 440.096 117.448C439.701 117.117 439.179 116.952 438.528 116.952C437.92 116.952 437.424 117.112 437.04 117.432C436.656 117.741 436.464 118.179 436.464 118.744C436.464 119.149 436.576 119.48 436.8 119.736C437.035 119.992 437.317 120.189 437.648 120.328C437.989 120.456 438.464 120.605 439.072 120.776C439.808 120.979 440.4 121.181 440.848 121.384C441.296 121.576 441.68 121.88 442 122.296C442.32 122.701 442.48 123.256 442.48 123.96C442.48 124.504 442.336 125.016 442.048 125.496C441.76 125.976 441.333 126.365 440.768 126.664C440.203 126.963 439.536 127.112 438.768 127.112ZM455.167 118.072C455.849 118.072 456.457 118.216 456.991 118.504C457.524 118.781 457.945 119.203 458.255 119.768C458.564 120.333 458.719 121.021 458.719 121.832V127H457.279V122.04C457.279 121.165 457.06 120.499 456.623 120.04C456.196 119.571 455.615 119.336 454.879 119.336C454.121 119.336 453.519 119.581 453.071 120.072C452.623 120.552 452.399 121.251 452.399 122.168V127H450.959V122.04C450.959 121.165 450.74 120.499 450.303 120.04C449.876 119.571 449.295 119.336 448.559 119.336C447.801 119.336 447.199 119.581 446.751 120.072C446.303 120.552 446.079 121.251 446.079 122.168V127H444.623V118.232H446.079V119.496C446.367 119.037 446.751 118.685 447.231 118.44C447.721 118.195 448.26 118.072 448.847 118.072C449.583 118.072 450.233 118.237 450.799 118.568C451.364 118.899 451.785 119.384 452.063 120.024C452.308 119.405 452.713 118.925 453.279 118.584C453.844 118.243 454.473 118.072 455.167 118.072ZM460.563 122.584C460.563 121.688 460.744 120.904 461.107 120.232C461.47 119.549 461.966 119.021 462.595 118.648C463.235 118.275 463.944 118.088 464.723 118.088C465.491 118.088 466.158 118.253 466.723 118.584C467.288 118.915 467.71 119.331 467.987 119.832V118.232H469.459V127H467.987V125.368C467.699 125.88 467.267 126.307 466.691 126.648C466.126 126.979 465.464 127.144 464.707 127.144C463.928 127.144 463.224 126.952 462.595 126.568C461.966 126.184 461.47 125.645 461.107 124.952C460.744 124.259 460.563 123.469 460.563 122.584ZM467.987 122.6C467.987 121.939 467.854 121.363 467.587 120.872C467.32 120.381 466.958 120.008 466.499 119.752C466.051 119.485 465.555 119.352 465.011 119.352C464.467 119.352 463.971 119.48 463.523 119.736C463.075 119.992 462.718 120.365 462.451 120.856C462.184 121.347 462.051 121.923 462.051 122.584C462.051 123.256 462.184 123.843 462.451 124.344C462.718 124.835 463.075 125.213 463.523 125.48C463.971 125.736 464.467 125.864 465.011 125.864C465.555 125.864 466.051 125.736 466.499 125.48C466.958 125.213 467.32 124.835 467.587 124.344C467.854 123.843 467.987 123.261 467.987 122.6ZM473.376 119.656C473.632 119.155 473.994 118.765 474.464 118.488C474.944 118.211 475.525 118.072 476.208 118.072V119.576H475.824C474.192 119.576 473.376 120.461 473.376 122.232V127H471.92V118.232H473.376V119.656ZM479.664 119.432V124.6C479.664 125.027 479.755 125.331 479.936 125.512C480.118 125.683 480.432 125.768 480.88 125.768H481.952V127H480.64C479.83 127 479.222 126.813 478.816 126.44C478.411 126.067 478.208 125.453 478.208 124.6V119.432H477.072V118.232H478.208V116.024H479.664V118.232H481.952V119.432H479.664ZM497.732 115.848L494.5 127H492.868L490.276 118.024L487.588 127L485.972 127.016L482.852 115.848H484.404L486.836 125.304L489.524 115.848H491.156L493.716 125.272L496.164 115.848H497.732ZM498.782 122.584C498.782 121.688 498.963 120.904 499.326 120.232C499.688 119.549 500.184 119.021 500.814 118.648C501.454 118.275 502.163 118.088 502.942 118.088C503.71 118.088 504.376 118.253 504.942 118.584C505.507 118.915 505.928 119.331 506.206 119.832V118.232H507.678V127H506.206V125.368C505.918 125.88 505.486 126.307 504.91 126.648C504.344 126.979 503.683 127.144 502.926 127.144C502.147 127.144 501.443 126.952 500.814 126.568C500.184 126.184 499.688 125.645 499.326 124.952C498.963 124.259 498.782 123.469 498.782 122.584ZM506.206 122.6C506.206 121.939 506.072 121.363 505.806 120.872C505.539 120.381 505.176 120.008 504.718 119.752C504.27 119.485 503.774 119.352 503.23 119.352C502.686 119.352 502.19 119.48 501.742 119.736C501.294 119.992 500.936 120.365 500.67 120.856C500.403 121.347 500.27 121.923 500.27 122.584C500.27 123.256 500.403 123.843 500.67 124.344C500.936 124.835 501.294 125.213 501.742 125.48C502.19 125.736 502.686 125.864 503.23 125.864C503.774 125.864 504.27 125.736 504.718 125.48C505.176 125.213 505.539 124.835 505.806 124.344C506.072 123.843 506.206 123.261 506.206 122.6ZM511.914 119.432V124.6C511.914 125.027 512.005 125.331 512.186 125.512C512.368 125.683 512.682 125.768 513.13 125.768H514.202V127H512.89C512.08 127 511.472 126.813 511.066 126.44C510.661 126.067 510.458 125.453 510.458 124.6V119.432H509.322V118.232H510.458V116.024H511.914V118.232H514.202V119.432H511.914ZM515.422 122.6C515.422 121.693 515.604 120.904 515.966 120.232C516.329 119.549 516.83 119.021 517.47 118.648C518.121 118.275 518.862 118.088 519.694 118.088C520.772 118.088 521.657 118.349 522.35 118.872C523.054 119.395 523.518 120.12 523.742 121.048H522.174C522.025 120.515 521.732 120.093 521.294 119.784C520.868 119.475 520.334 119.32 519.694 119.32C518.862 119.32 518.19 119.608 517.678 120.184C517.166 120.749 516.91 121.555 516.91 122.6C516.91 123.656 517.166 124.472 517.678 125.048C518.19 125.624 518.862 125.912 519.694 125.912C520.334 125.912 520.868 125.763 521.294 125.464C521.721 125.165 522.014 124.739 522.174 124.184H523.742C523.508 125.08 523.038 125.8 522.334 126.344C521.63 126.877 520.75 127.144 519.694 127.144C518.862 127.144 518.121 126.957 517.47 126.584C516.83 126.211 516.329 125.683 515.966 125C515.604 124.317 515.422 123.517 515.422 122.6ZM530.037 118.072C530.698 118.072 531.296 118.216 531.829 118.504C532.362 118.781 532.778 119.203 533.077 119.768C533.386 120.333 533.541 121.021 533.541 121.832V127H532.101V122.04C532.101 121.165 531.882 120.499 531.445 120.04C531.008 119.571 530.41 119.336 529.653 119.336C528.885 119.336 528.272 119.576 527.813 120.056C527.365 120.536 527.141 121.235 527.141 122.152V127H525.685V115.16H527.141V119.48C527.429 119.032 527.824 118.685 528.325 118.44C528.837 118.195 529.408 118.072 530.037 118.072Z" fill="black"/>
<g clip-path="url(#clip2_79_606)">
<path d="M492 51H478C474.134 51 471 54.134 471 58V72C471 75.866 474.134 79 478 79H492C495.866 79 499 75.866 499 72V58C499 54.134 495.866 51 492 51Z" stroke="black" stroke-width="2" stroke-linecap="round" stroke-linejoin="round"/>
<path d="M478 79V86H492V79" stroke="black" stroke-width="2" stroke-linecap="round" stroke-linejoin="round"/>
<path d="M478 51V44H492V51" stroke="black" stroke-width="2" stroke-linecap="round" stroke-linejoin="round"/>
<line x1="481" y1="60" x2="481" y2="71" stroke="black" stroke-width="2" stroke-linecap="round"/>
<line x1="485" y1="65" x2="485" y2="71" stroke="black" stroke-width="2" stroke-linecap="round"/>
<line x1="489" y1="63" x2="489" y2="71" stroke="black" stroke-width="2" stroke-linecap="round"/>
</g>
<g filter="url(#filter0_d_79_606)">
<rect x="600" y="12" width="170" height="145" rx="4" fill="#DB4444"/>
<path d="M651.688 121.416C651.688 120.328 651.933 119.352 652.424 118.488C652.915 117.613 653.581 116.931 654.424 116.44C655.277 115.949 656.221 115.704 657.256 115.704C658.472 115.704 659.533 115.997 660.44 116.584C661.347 117.171 662.008 118.003 662.424 119.08H660.68C660.371 118.408 659.923 117.891 659.336 117.528C658.76 117.165 658.067 116.984 657.256 116.984C656.477 116.984 655.779 117.165 655.16 117.528C654.541 117.891 654.056 118.408 653.704 119.08C653.352 119.741 653.176 120.52 653.176 121.416C653.176 122.301 653.352 123.08 653.704 123.752C654.056 124.413 654.541 124.925 655.16 125.288C655.779 125.651 656.477 125.832 657.256 125.832C658.067 125.832 658.76 125.656 659.336 125.304C659.923 124.941 660.371 124.424 660.68 123.752H662.424C662.008 124.819 661.347 125.645 660.44 126.232C659.533 126.808 658.472 127.096 657.256 127.096C656.221 127.096 655.277 126.856 654.424 126.376C653.581 125.885 652.915 125.208 652.424 124.344C651.933 123.48 651.688 122.504 651.688 121.416ZM664.047 122.584C664.047 121.688 664.229 120.904 664.591 120.232C664.954 119.549 665.45 119.021 666.079 118.648C666.719 118.275 667.429 118.088 668.207 118.088C668.975 118.088 669.642 118.253 670.207 118.584C670.773 118.915 671.194 119.331 671.471 119.832V118.232H672.943V127H671.471V125.368C671.183 125.88 670.751 126.307 670.175 126.648C669.61 126.979 668.949 127.144 668.191 127.144C667.413 127.144 666.709 126.952 666.079 126.568C665.45 126.184 664.954 125.645 664.591 124.952C664.229 124.259 664.047 123.469 664.047 122.584ZM671.471 122.6C671.471 121.939 671.338 121.363 671.071 120.872C670.805 120.381 670.442 120.008 669.983 119.752C669.535 119.485 669.039 119.352 668.495 119.352C667.951 119.352 667.455 119.48 667.007 119.736C666.559 119.992 666.202 120.365 665.935 120.856C665.669 121.347 665.535 121.923 665.535 122.584C665.535 123.256 665.669 123.843 665.935 124.344C666.202 124.835 666.559 125.213 667.007 125.48C667.455 125.736 667.951 125.864 668.495 125.864C669.039 125.864 669.535 125.736 669.983 125.48C670.442 125.213 670.805 124.835 671.071 124.344C671.338 123.843 671.471 123.261 671.471 122.6ZM685.948 118.072C686.631 118.072 687.239 118.216 687.772 118.504C688.305 118.781 688.727 119.203 689.036 119.768C689.345 120.333 689.5 121.021 689.5 121.832V127H688.06V122.04C688.06 121.165 687.841 120.499 687.404 120.04C686.977 119.571 686.396 119.336 685.66 119.336C684.903 119.336 684.3 119.581 683.852 120.072C683.404 120.552 683.18 121.251 683.18 122.168V127H681.74V122.04C681.74 121.165 681.521 120.499 681.084 120.04C680.657 119.571 680.076 119.336 679.34 119.336C678.583 119.336 677.98 119.581 677.532 120.072C677.084 120.552 676.86 121.251 676.86 122.168V127H675.404V118.232H676.86V119.496C677.148 119.037 677.532 118.685 678.012 118.44C678.503 118.195 679.041 118.072 679.628 118.072C680.364 118.072 681.015 118.237 681.58 118.568C682.145 118.899 682.567 119.384 682.844 120.024C683.089 119.405 683.495 118.925 684.06 118.584C684.625 118.243 685.255 118.072 685.948 118.072ZM699.888 122.28C699.888 122.557 699.872 122.851 699.84 123.16H692.832C692.886 124.024 693.179 124.701 693.712 125.192C694.256 125.672 694.912 125.912 695.68 125.912C696.31 125.912 696.832 125.768 697.248 125.48C697.675 125.181 697.974 124.787 698.144 124.296H699.712C699.478 125.139 699.008 125.827 698.304 126.36C697.6 126.883 696.726 127.144 695.68 127.144C694.848 127.144 694.102 126.957 693.44 126.584C692.79 126.211 692.278 125.683 691.904 125C691.531 124.307 691.344 123.507 691.344 122.6C691.344 121.693 691.526 120.899 691.888 120.216C692.251 119.533 692.758 119.011 693.408 118.648C694.07 118.275 694.827 118.088 695.68 118.088C696.512 118.088 697.248 118.269 697.888 118.632C698.528 118.995 699.019 119.496 699.36 120.136C699.712 120.765 699.888 121.48 699.888 122.28ZM698.384 121.976C698.384 121.421 698.262 120.947 698.016 120.552C697.771 120.147 697.435 119.843 697.008 119.64C696.592 119.427 696.128 119.32 695.616 119.32C694.88 119.32 694.251 119.555 693.728 120.024C693.216 120.493 692.923 121.144 692.848 121.976H698.384ZM703.266 119.656C703.522 119.155 703.885 118.765 704.354 118.488C704.834 118.211 705.415 118.072 706.098 118.072V119.576H705.714C704.082 119.576 703.266 120.461 703.266 122.232V127H701.81V118.232H703.266V119.656ZM707.235 122.584C707.235 121.688 707.416 120.904 707.779 120.232C708.142 119.549 708.638 119.021 709.267 118.648C709.907 118.275 710.616 118.088 711.395 118.088C712.163 118.088 712.83 118.253 713.395 118.584C713.96 118.915 714.382 119.331 714.659 119.832V118.232H716.131V127H714.659V125.368C714.371 125.88 713.939 126.307 713.363 126.648C712.798 126.979 712.136 127.144 711.379 127.144C710.6 127.144 709.896 126.952 709.267 126.568C708.638 126.184 708.142 125.645 707.779 124.952C707.416 124.259 707.235 123.469 707.235 122.584ZM714.659 122.6C714.659 121.939 714.526 121.363 714.259 120.872C713.992 120.381 713.63 120.008 713.171 119.752C712.723 119.485 712.227 119.352 711.683 119.352C711.139 119.352 710.643 119.48 710.195 119.736C709.747 119.992 709.39 120.365 709.123 120.856C708.856 121.347 708.723 121.923 708.723 122.584C708.723 123.256 708.856 123.843 709.123 124.344C709.39 124.835 709.747 125.213 710.195 125.48C710.643 125.736 711.139 125.864 711.683 125.864C712.227 125.864 712.723 125.736 713.171 125.48C713.63 125.213 713.992 124.835 714.259 124.344C714.526 123.843 714.659 123.261 714.659 122.6Z" fill="#FAFAFA"/>
<g clip-path="url(#clip3_79_606)">
<path d="M668.667 53.3334H671C672.238 53.3334 673.425 52.8417 674.3 51.9665C675.175 51.0914 675.667 49.9044 675.667 48.6667C675.667 48.0479 675.912 47.4544 676.35 47.0168C676.788 46.5792 677.381 46.3334 678 46.3334H692C692.619 46.3334 693.212 46.5792 693.65 47.0168C694.087 47.4544 694.333 48.0479 694.333 48.6667C694.333 49.9044 694.825 51.0914 695.7 51.9665C696.575 52.8417 697.762 53.3334 699 53.3334H701.333C702.571 53.3334 703.758 53.825 704.633 54.7002C705.508 55.5754 706 56.7624 706 58V79C706 80.2377 705.508 81.4247 704.633 82.2999C703.758 83.175 702.571 83.6667 701.333 83.6667H668.667C667.429 83.6667 666.242 83.175 665.367 82.2999C664.492 81.4247 664 80.2377 664 79V58C664 56.7624 664.492 55.5754 665.367 54.7002C666.242 53.825 667.429 53.3334 668.667 53.3334" stroke="white" stroke-width="2" stroke-linecap="round" stroke-linejoin="round"/>
<path d="M685 74.3334C688.866 74.3334 692 71.1994 692 67.3334C692 63.4674 688.866 60.3334 685 60.3334C681.134 60.3334 678 63.4674 678 67.3334C678 71.1994 681.134 74.3334 685 74.3334Z" stroke="white" stroke-width="2" stroke-linecap="round" stroke-linejoin="round"/>
</g>
</g>
<rect x="800.5" y="12.5" width="169" height="144" rx="3.5" stroke="black" stroke-opacity="0.3"/>
<path d="M843.824 115.848V127H842.368V121.944H836.688V127H835.232V115.848H836.688V120.744H842.368V115.848H843.824ZM854.31 122.28C854.31 122.557 854.294 122.851 854.262 123.16H847.254C847.307 124.024 847.601 124.701 848.134 125.192C848.678 125.672 849.334 125.912 850.102 125.912C850.731 125.912 851.254 125.768 851.67 125.48C852.097 125.181 852.395 124.787 852.566 124.296H854.134C853.899 125.139 853.43 125.827 852.726 126.36C852.022 126.883 851.147 127.144 850.102 127.144C849.27 127.144 848.523 126.957 847.862 126.584C847.211 126.211 846.699 125.683 846.326 125C845.953 124.307 845.766 123.507 845.766 122.6C845.766 121.693 845.947 120.899 846.31 120.216C846.673 119.533 847.179 119.011 847.83 118.648C848.491 118.275 849.249 118.088 850.102 118.088C850.934 118.088 851.67 118.269 852.31 118.632C852.95 118.995 853.441 119.496 853.782 120.136C854.134 120.765 854.31 121.48 854.31 122.28ZM852.806 121.976C852.806 121.421 852.683 120.947 852.438 120.552C852.193 120.147 851.857 119.843 851.43 119.64C851.014 119.427 850.55 119.32 850.038 119.32C849.302 119.32 848.673 119.555 848.15 120.024C847.638 120.493 847.345 121.144 847.27 121.976H852.806ZM855.688 122.584C855.688 121.688 855.869 120.904 856.232 120.232C856.595 119.549 857.091 119.021 857.72 118.648C858.36 118.275 859.069 118.088 859.848 118.088C860.616 118.088 861.283 118.253 861.848 118.584C862.413 118.915 862.835 119.331 863.112 119.832V118.232H864.584V127H863.112V125.368C862.824 125.88 862.392 126.307 861.816 126.648C861.251 126.979 860.589 127.144 859.832 127.144C859.053 127.144 858.349 126.952 857.72 126.568C857.091 126.184 856.595 125.645 856.232 124.952C855.869 124.259 855.688 123.469 855.688 122.584ZM863.112 122.6C863.112 121.939 862.979 121.363 862.712 120.872C862.445 120.381 862.083 120.008 861.624 119.752C861.176 119.485 860.68 119.352 860.136 119.352C859.592 119.352 859.096 119.48 858.648 119.736C858.2 119.992 857.843 120.365 857.576 120.856C857.309 121.347 857.176 121.923 857.176 122.584C857.176 123.256 857.309 123.843 857.576 124.344C857.843 124.835 858.2 125.213 858.648 125.48C859.096 125.736 859.592 125.864 860.136 125.864C860.68 125.864 861.176 125.736 861.624 125.48C862.083 125.213 862.445 124.835 862.712 124.344C862.979 123.843 863.112 123.261 863.112 122.6ZM866.501 122.584C866.501 121.688 866.682 120.904 867.045 120.232C867.407 119.549 867.903 119.021 868.533 118.648C869.173 118.275 869.887 118.088 870.677 118.088C871.359 118.088 871.994 118.248 872.581 118.568C873.167 118.877 873.615 119.288 873.925 119.8V115.16H875.397V127H873.925V125.352C873.637 125.875 873.21 126.307 872.645 126.648C872.079 126.979 871.418 127.144 870.661 127.144C869.882 127.144 869.173 126.952 868.533 126.568C867.903 126.184 867.407 125.645 867.045 124.952C866.682 124.259 866.501 123.469 866.501 122.584ZM873.925 122.6C873.925 121.939 873.791 121.363 873.525 120.872C873.258 120.381 872.895 120.008 872.437 119.752C871.989 119.485 871.493 119.352 870.949 119.352C870.405 119.352 869.909 119.48 869.461 119.736C869.013 119.992 868.655 120.365 868.389 120.856C868.122 121.347 867.989 121.923 867.989 122.584C867.989 123.256 868.122 123.843 868.389 124.344C868.655 124.835 869.013 125.213 869.461 125.48C869.909 125.736 870.405 125.864 870.949 125.864C871.493 125.864 871.989 125.736 872.437 125.48C872.895 125.213 873.258 124.835 873.525 124.344C873.791 123.843 873.925 123.261 873.925 122.6ZM885.313 119.112C885.313 120.04 884.993 120.813 884.353 121.432C883.724 122.04 882.758 122.344 881.457 122.344H879.313V127H877.857V115.848H881.457C882.716 115.848 883.67 116.152 884.321 116.76C884.982 117.368 885.313 118.152 885.313 119.112ZM881.457 121.144C882.268 121.144 882.865 120.968 883.249 120.616C883.633 120.264 883.825 119.763 883.825 119.112C883.825 117.736 883.036 117.048 881.457 117.048H879.313V121.144H881.457ZM891.475 118.072C892.136 118.072 892.733 118.216 893.267 118.504C893.8 118.781 894.216 119.203 894.515 119.768C894.824 120.333 894.979 121.021 894.979 121.832V127H893.539V122.04C893.539 121.165 893.32 120.499 892.883 120.04C892.445 119.571 891.848 119.336 891.091 119.336C890.323 119.336 889.709 119.576 889.251 120.056C888.803 120.536 888.579 121.235 888.579 122.152V127H887.123V115.16H888.579V119.48C888.867 119.032 889.261 118.685 889.763 118.44C890.275 118.195 890.845 118.072 891.475 118.072ZM901.181 127.144C900.36 127.144 899.613 126.957 898.941 126.584C898.28 126.211 897.757 125.683 897.373 125C897 124.307 896.813 123.507 896.813 122.6C896.813 121.704 897.005 120.915 897.389 120.232C897.784 119.539 898.317 119.011 898.989 118.648C899.661 118.275 900.413 118.088 901.245 118.088C902.077 118.088 902.829 118.275 903.501 118.648C904.173 119.011 904.701 119.533 905.085 120.216C905.48 120.899 905.677 121.693 905.677 122.6C905.677 123.507 905.474 124.307 905.069 125C904.674 125.683 904.136 126.211 903.453 126.584C902.77 126.957 902.013 127.144 901.181 127.144ZM901.181 125.864C901.704 125.864 902.194 125.741 902.653 125.496C903.112 125.251 903.48 124.883 903.757 124.392C904.045 123.901 904.189 123.304 904.189 122.6C904.189 121.896 904.05 121.299 903.773 120.808C903.496 120.317 903.133 119.955 902.685 119.72C902.237 119.475 901.752 119.352 901.229 119.352C900.696 119.352 900.205 119.475 899.757 119.72C899.32 119.955 898.968 120.317 898.701 120.808C898.434 121.299 898.301 121.896 898.301 122.6C898.301 123.315 898.429 123.917 898.685 124.408C898.952 124.899 899.304 125.267 899.741 125.512C900.178 125.747 900.658 125.864 901.181 125.864ZM911.863 118.072C912.93 118.072 913.794 118.397 914.455 119.048C915.117 119.688 915.447 120.616 915.447 121.832V127H914.007V122.04C914.007 121.165 913.789 120.499 913.351 120.04C912.914 119.571 912.317 119.336 911.559 119.336C910.791 119.336 910.178 119.576 909.719 120.056C909.271 120.536 909.047 121.235 909.047 122.152V127H907.591V118.232H909.047V119.48C909.335 119.032 909.725 118.685 910.215 118.44C910.717 118.195 911.266 118.072 911.863 118.072ZM925.826 122.28C925.826 122.557 925.81 122.851 925.778 123.16H918.77C918.823 124.024 919.116 124.701 919.65 125.192C920.194 125.672 920.85 125.912 921.618 125.912C922.247 125.912 922.77 125.768 923.186 125.48C923.612 125.181 923.911 124.787 924.082 124.296H925.65C925.415 125.139 924.946 125.827 924.242 126.36C923.538 126.883 922.663 127.144 921.618 127.144C920.786 127.144 920.039 126.957 919.378 126.584C918.727 126.211 918.215 125.683 917.842 125C917.468 124.307 917.282 123.507 917.282 122.6C917.282 121.693 917.463 120.899 917.826 120.216C918.188 119.533 918.695 119.011 919.346 118.648C920.007 118.275 920.764 118.088 921.618 118.088C922.45 118.088 923.186 118.269 923.826 118.632C924.466 118.995 924.956 119.496 925.298 120.136C925.65 120.765 925.826 121.48 925.826 122.28ZM924.322 121.976C924.322 121.421 924.199 120.947 923.954 120.552C923.708 120.147 923.372 119.843 922.946 119.64C922.53 119.427 922.066 119.32 921.554 119.32C920.818 119.32 920.188 119.555 919.666 120.024C919.154 120.493 918.86 121.144 918.786 121.976H924.322ZM930.852 127.144C930.18 127.144 929.577 127.032 929.044 126.808C928.51 126.573 928.089 126.253 927.78 125.848C927.47 125.432 927.3 124.957 927.268 124.424H928.772C928.814 124.861 929.017 125.219 929.38 125.496C929.753 125.773 930.238 125.912 930.836 125.912C931.39 125.912 931.828 125.789 932.148 125.544C932.468 125.299 932.628 124.989 932.628 124.616C932.628 124.232 932.457 123.949 932.116 123.768C931.774 123.576 931.246 123.389 930.532 123.208C929.881 123.037 929.348 122.867 928.932 122.696C928.526 122.515 928.174 122.253 927.876 121.912C927.588 121.56 927.444 121.101 927.444 120.536C927.444 120.088 927.577 119.677 927.844 119.304C928.11 118.931 928.489 118.637 928.98 118.424C929.47 118.2 930.03 118.088 930.66 118.088C931.63 118.088 932.414 118.333 933.012 118.824C933.609 119.315 933.929 119.987 933.972 120.84H932.516C932.484 120.381 932.297 120.013 931.956 119.736C931.625 119.459 931.177 119.32 930.612 119.32C930.089 119.32 929.673 119.432 929.364 119.656C929.054 119.88 928.9 120.173 928.9 120.536C928.9 120.824 928.99 121.064 929.172 121.256C929.364 121.437 929.598 121.587 929.876 121.704C930.164 121.811 930.558 121.933 931.06 122.072C931.689 122.243 932.201 122.413 932.596 122.584C932.99 122.744 933.326 122.989 933.604 123.32C933.892 123.651 934.041 124.083 934.052 124.616C934.052 125.096 933.918 125.528 933.652 125.912C933.385 126.296 933.006 126.6 932.516 126.824C932.036 127.037 931.481 127.144 930.852 127.144Z" fill="black"/>
<g clip-path="url(#clip4_79_606)">
<path d="M873.333 67.3334H871C868.423 67.3334 866.333 69.4227 866.333 72V79C866.333 81.5774 868.423 83.6667 871 83.6667H873.333C875.911 83.6667 878 81.5774 878 79V72C878 69.4227 875.911 67.3334 873.333 67.3334Z" stroke="black" stroke-width="2" stroke-linecap="round" stroke-linejoin="round"/>
<path d="M899 67.3334H896.667C894.089 67.3334 892 69.4227 892 72V79C892 81.5774 894.089 83.6667 896.667 83.6667H899C901.577 83.6667 903.667 81.5774 903.667 79V72C903.667 69.4227 901.577 67.3334 899 67.3334Z" stroke="black" stroke-width="2" stroke-linecap="round" stroke-linejoin="round"/>
<path d="M866.333 72V65C866.333 60.0493 868.3 55.3014 871.801 51.8007C875.301 48.3 880.049 46.3334 885 46.3334C889.951 46.3334 894.699 48.3 898.199 51.8007C901.7 55.3014 903.667 60.0493 903.667 65V72" stroke="black" stroke-width="2" stroke-linecap="round" stroke-linejoin="round"/>
</g>
<rect x="1000.5" y="12.5" width="169" height="144" rx="3.5" stroke="black" stroke-opacity="0.3"/>
<path d="M1062.68 119.08C1062.37 118.429 1061.92 117.928 1061.34 117.576C1060.75 117.213 1060.07 117.032 1059.29 117.032C1058.51 117.032 1057.81 117.213 1057.18 117.576C1056.56 117.928 1056.07 118.44 1055.7 119.112C1055.35 119.773 1055.18 120.541 1055.18 121.416C1055.18 122.291 1055.35 123.059 1055.7 123.72C1056.07 124.381 1056.56 124.893 1057.18 125.256C1057.81 125.608 1058.51 125.784 1059.29 125.784C1060.38 125.784 1061.27 125.459 1061.98 124.808C1062.68 124.157 1063.09 123.277 1063.21 122.168H1058.76V120.984H1064.76V122.104C1064.67 123.021 1064.39 123.864 1063.9 124.632C1063.41 125.389 1062.76 125.992 1061.96 126.44C1061.16 126.877 1060.27 127.096 1059.29 127.096C1058.25 127.096 1057.31 126.856 1056.46 126.376C1055.6 125.885 1054.93 125.208 1054.42 124.344C1053.93 123.48 1053.69 122.504 1053.69 121.416C1053.69 120.328 1053.93 119.352 1054.42 118.488C1054.93 117.613 1055.6 116.936 1056.46 116.456C1057.31 115.965 1058.25 115.72 1059.29 115.72C1060.47 115.72 1061.52 116.013 1062.42 116.6C1063.34 117.187 1064.01 118.013 1064.42 119.08H1062.68ZM1066.14 122.584C1066.14 121.688 1066.32 120.904 1066.69 120.232C1067.05 119.549 1067.54 119.021 1068.17 118.648C1068.81 118.275 1069.52 118.088 1070.3 118.088C1071.07 118.088 1071.74 118.253 1072.3 118.584C1072.87 118.915 1073.29 119.331 1073.57 119.832V118.232H1075.04V127H1073.57V125.368C1073.28 125.88 1072.85 126.307 1072.27 126.648C1071.7 126.979 1071.04 127.144 1070.29 127.144C1069.51 127.144 1068.8 126.952 1068.17 126.568C1067.54 126.184 1067.05 125.645 1066.69 124.952C1066.32 124.259 1066.14 123.469 1066.14 122.584ZM1073.57 122.6C1073.57 121.939 1073.43 121.363 1073.17 120.872C1072.9 120.381 1072.54 120.008 1072.08 119.752C1071.63 119.485 1071.13 119.352 1070.59 119.352C1070.05 119.352 1069.55 119.48 1069.1 119.736C1068.65 119.992 1068.3 120.365 1068.03 120.856C1067.76 121.347 1067.63 121.923 1067.63 122.584C1067.63 123.256 1067.76 123.843 1068.03 124.344C1068.3 124.835 1068.65 125.213 1069.1 125.48C1069.55 125.736 1070.05 125.864 1070.59 125.864C1071.13 125.864 1071.63 125.736 1072.08 125.48C1072.54 125.213 1072.9 124.835 1073.17 124.344C1073.43 123.843 1073.57 123.261 1073.57 122.6ZM1088.04 118.072C1088.72 118.072 1089.33 118.216 1089.87 118.504C1090.4 118.781 1090.82 119.203 1091.13 119.768C1091.44 120.333 1091.59 121.021 1091.59 121.832V127H1090.15V122.04C1090.15 121.165 1089.93 120.499 1089.5 120.04C1089.07 119.571 1088.49 119.336 1087.75 119.336C1087 119.336 1086.39 119.581 1085.95 120.072C1085.5 120.552 1085.27 121.251 1085.27 122.168V127H1083.83V122.04C1083.83 121.165 1083.61 120.499 1083.18 120.04C1082.75 119.571 1082.17 119.336 1081.43 119.336C1080.68 119.336 1080.07 119.581 1079.63 120.072C1079.18 120.552 1078.95 121.251 1078.95 122.168V127H1077.5V118.232H1078.95V119.496C1079.24 119.037 1079.63 118.685 1080.11 118.44C1080.6 118.195 1081.13 118.072 1081.72 118.072C1082.46 118.072 1083.11 118.237 1083.67 118.568C1084.24 118.899 1084.66 119.384 1084.94 120.024C1085.18 119.405 1085.59 118.925 1086.15 118.584C1086.72 118.243 1087.35 118.072 1088.04 118.072ZM1094.73 116.808C1094.46 116.808 1094.22 116.712 1094.03 116.52C1093.84 116.328 1093.74 116.093 1093.74 115.816C1093.74 115.539 1093.84 115.304 1094.03 115.112C1094.22 114.92 1094.46 114.824 1094.73 114.824C1095 114.824 1095.22 114.92 1095.41 115.112C1095.6 115.304 1095.69 115.539 1095.69 115.816C1095.69 116.093 1095.6 116.328 1095.41 116.52C1095.22 116.712 1095 116.808 1094.73 116.808ZM1095.44 118.232V127H1093.98V118.232H1095.44ZM1102.19 118.072C1103.26 118.072 1104.12 118.397 1104.78 119.048C1105.44 119.688 1105.78 120.616 1105.78 121.832V127H1104.34V122.04C1104.34 121.165 1104.12 120.499 1103.68 120.04C1103.24 119.571 1102.64 119.336 1101.89 119.336C1101.12 119.336 1100.51 119.576 1100.05 120.056C1099.6 120.536 1099.38 121.235 1099.38 122.152V127H1097.92V118.232H1099.38V119.48C1099.66 119.032 1100.05 118.685 1100.54 118.44C1101.04 118.195 1101.59 118.072 1102.19 118.072ZM1111.77 118.088C1112.53 118.088 1113.19 118.253 1113.75 118.584C1114.33 118.915 1114.76 119.331 1115.03 119.832V118.232H1116.51V127.192C1116.51 127.992 1116.34 128.701 1115.99 129.32C1115.65 129.949 1115.16 130.44 1114.52 130.792C1113.89 131.144 1113.16 131.32 1112.31 131.32C1111.16 131.32 1110.2 131.048 1109.43 130.504C1108.67 129.96 1108.21 129.219 1108.07 128.28H1109.51C1109.67 128.813 1110 129.24 1110.51 129.56C1111.01 129.891 1111.61 130.056 1112.31 130.056C1113.11 130.056 1113.76 129.805 1114.27 129.304C1114.78 128.803 1115.03 128.099 1115.03 127.192V125.352C1114.75 125.864 1114.32 126.291 1113.75 126.632C1113.19 126.973 1112.53 127.144 1111.77 127.144C1110.99 127.144 1110.28 126.952 1109.64 126.568C1109.01 126.184 1108.52 125.645 1108.15 124.952C1107.79 124.259 1107.61 123.469 1107.61 122.584C1107.61 121.688 1107.79 120.904 1108.15 120.232C1108.52 119.549 1109.01 119.021 1109.64 118.648C1110.28 118.275 1110.99 118.088 1111.77 118.088ZM1115.03 122.6C1115.03 121.939 1114.9 121.363 1114.63 120.872C1114.37 120.381 1114 120.008 1113.55 119.752C1113.1 119.485 1112.6 119.352 1112.06 119.352C1111.51 119.352 1111.02 119.48 1110.57 119.736C1110.12 119.992 1109.76 120.365 1109.5 120.856C1109.23 121.347 1109.1 121.923 1109.1 122.584C1109.1 123.256 1109.23 123.843 1109.5 124.344C1109.76 124.835 1110.12 125.213 1110.57 125.48C1111.02 125.736 1111.51 125.864 1112.06 125.864C1112.6 125.864 1113.1 125.736 1113.55 125.48C1114 125.213 1114.37 124.835 1114.63 124.344C1114.9 123.843 1115.03 123.261 1115.03 122.6Z" fill="black"/>
<g clip-path="url(#clip5_79_606)">
<path d="M1103.67 51H1066.33C1063.76 51 1061.67 53.0893 1061.67 55.6667V74.3333C1061.67 76.9107 1063.76 79 1066.33 79H1103.67C1106.24 79 1108.33 76.9107 1108.33 74.3333V55.6667C1108.33 53.0893 1106.24 51 1103.67 51Z" stroke="black" stroke-width="2" stroke-linecap="round" stroke-linejoin="round"/>
<path d="M1071 65H1080.33M1075.67 60.3334V69.6667" stroke="black" stroke-width="2" stroke-linecap="round" stroke-linejoin="round"/>
<path d="M1092 62.6666V62.6908" stroke="black" stroke-width="3" stroke-linecap="round" stroke-linejoin="round"/>
<path d="M1099 67.3333V67.3574" stroke="black" stroke-width="3" stroke-linecap="round" stroke-linejoin="round"/>
</g>
<defs>
<filter id="filter0_d_79_606" x="587" y="0" width="196" height="171" filterUnits="userSpaceOnUse" color-interpolation-filters="sRGB">
<feFlood flood-opacity="0" result="BackgroundImageFix"/>
<feColorMatrix in="SourceAlpha" type="matrix" values="0 0 0 0 0 0 0 0 0 0 0 0 0 0 0 0 0 0 127 0" result="hardAlpha"/>
<feOffset dy="1"/>
<feGaussianBlur stdDeviation="6.5"/>
<feComposite in2="hardAlpha" operator="out"/>
<feColorMatrix type="matrix" values="0 0 0 0 0 0 0 0 0 0 0 0 0 0 0 0 0 0 0.05 0"/>
<feBlend mode="normal" in2="BackgroundImageFix" result="effect1_dropShadow_79_606"/>
<feBlend mode="normal" in="SourceGraphic" in2="effect1_dropShadow_79_606" result="shape"/>
</filter>
<clipPath id="clip0_79_606">
<rect width="56" height="56" fill="white" transform="translate(57 37)"/>
</clipPath>
<clipPath id="clip1_79_606">
<rect width="56" height="56" fill="white" transform="translate(258 37)"/>
</clipPath>
<clipPath id="clip2_79_606">
<rect width="56" height="56" fill="white" transform="translate(457 37)"/>
</clipPath>
<clipPath id="clip3_79_606">
<rect width="56" height="56" fill="white" transform="translate(657 37)"/>
</clipPath>
<clipPath id="clip4_79_606">
<rect width="56" height="56" fill="white" transform="translate(857 37)"/>
</clipPath>
<clipPath id="clip5_79_606">
<rect width="56" height="56" fill="white" transform="translate(1057 37)"/>
</clipPath>
</defs>
</svg>
